<?xml version="1.0" encoding="UTF-8" standalone="no"?>
<svg
   xmlns:dc="http://purl.org/dc/elements/1.1/"
   xmlns:cc="http://creativecommons.org/ns#"
   xmlns:rdf="http://www.w3.org/1999/02/22-rdf-syntax-ns#"
   xmlns:svg="http://www.w3.org/2000/svg"
   xmlns="http://www.w3.org/2000/svg"
   xmlns:sodipodi="http://sodipodi.sourceforge.net/DTD/sodipodi-0.dtd"
   xmlns:inkscape="http://www.inkscape.org/namespaces/inkscape"
   id="svg8"
   version="1.1"
   viewBox="0 0 210.73407 297.86644"
   height="72.210045pt"
   width="72.251678pt"
   sodipodi:docname="muttley.svg"
   inkscape:version="0.92.4 (5da689c313, 2019-01-14)">
  <title
     id="title6326">Muttley</title>
  <sodipodi:namedview
     pagecolor="#ffffff"
     bordercolor="#66e866"
     borderopacity="1"
     objecttolerance="10"
     gridtolerance="10"
     guidetolerance="10"
     inkscape:pageopacity="0"
     inkscape:pageshadow="2"
     inkscape:window-width="1920"
     inkscape:window-height="1016"
     id="namedview7"
     showgrid="false"
     showguides="true"
     inkscape:guide-bbox="true"
     inkscape:zoom="6.06"
     inkscape:cx="57.101604"
     inkscape:cy="35.006533"
     inkscape:window-x="0"
     inkscape:window-y="27"
     inkscape:window-maximized="1"
     inkscape:current-layer="svg8"
     fit-margin-left="0.5"
     fit-margin-top="0.5"
     fit-margin-right="0.5"
     fit-margin-bottom="-0.3"
     showborder="true"
     inkscape:pagecheckerboard="true"
     borderlayer="false" />
  <defs
     id="defs2" />
  <metadata
     id="metadata5">
    <rdf:RDF>
      <cc:Work
         rdf:about="">
        <dc:format>image/svg+xml</dc:format>
        <dc:type
           rdf:resource="http://purl.org/dc/dcmitype/StillImage" />
        <dc:title>Muttley</dc:title>
        <cc:license
           rdf:resource="GPL v3" />
        <dc:creator>
          <cc:Agent>
            <dc:title>Andres Basile</dc:title>
          </cc:Agent>
        </dc:creator>
      </cc:Work>
    </rdf:RDF>
  </metadata>
  <g
     id="layer1"
     transform="matrix(9.1369934,0,0,8.9791096,-1398.4806,-633.2525)">
    <path
       id="path75"
       d="m 153.94971,103.64876 c 0,-0.0886 0.18165,-0.51232 0.40367,-0.94166 0.22202,-0.42933 0.37085,-0.78313 0.33073,-0.7862 -0.0401,-0.003 -1.09026,-0.0328 -2.33365,-0.0661 -2.52503,-0.0676 -3.51139,-0.49391 -3.79957,-1.64209 -0.2348,-0.935521 0.45432,-2.879701 1.63427,-4.610691 0.86565,-1.26991 0.99017,-1.36378 1.11388,-0.83973 l 0.13928,0.59001 0.63938,-0.68059 c 0.35166,-0.37432 0.5893,-0.71709 0.52809,-0.7617 -0.0612,-0.0446 -0.43871,-0.28596 -0.83889,-0.53631 -0.81284,-0.50851 -0.97381,-1.49678 -0.33073,-2.03049 0.56887,-0.47212 0.49341,-0.87717 -0.29949,-1.60753 -1.39745,-1.28722 -2.05024,-3.65112 -1.40147,-5.07501 0.325,-0.7133 0.57384,-0.88633 3.81763,-2.65459 1.30968,-0.71394 2.42298,-1.33806 2.474,-1.38694 0.051,-0.0489 -0.15735,-0.35731 -0.46302,-0.68541 -0.36493,-0.3917 -0.55577,-0.94603 -0.55577,-1.6143 0,-0.95109 -0.0363,-0.99833 -0.55421,-0.72115 -0.5048,0.27016 -0.53719,0.24151 -0.36335,-0.32142 0.10496,-0.33992 0.37275,-0.97521 0.59508,-1.41178 0.39081,-0.76736 0.3875,-0.78082 -0.0997,-0.40488 -0.30664,0.23665 -0.25367,0.1081 0.13533,-0.32839 0.35158,-0.39449 1.16575,-0.97213 1.80926,-1.28365 1.03378,-0.50045 1.29349,-0.52941 2.23026,-0.24875 1.16643,0.34947 0.98428,0.43879 3.30114,-1.61872 0.63199,-0.56124 1.51606,-1.05542 2.07604,-1.16048 2.03499,-0.38176 4.37209,0.95287 4.93012,2.81542 0.17119,0.57135 0.35675,1.03883 0.41237,1.03883 0.0556,0 0.44352,-0.25314 0.86199,-0.56253 0.63904,-0.47247 0.96406,-0.53207 2.0299,-0.37223 1.53548,0.23026 3.27322,0.8952 3.27322,1.25248 0,0.14315 0.23813,0.563 0.52917,0.933 0.83714,1.06425 0.65191,2.47036 -0.21167,1.60678 -0.24694,-0.24694 -0.3175,-0.15686 -0.3175,0.40537 0,0.39758 -0.18232,1.15924 -0.40516,1.69258 -0.48655,1.16446 -0.34868,1.65879 0.46301,1.66012 0.59428,9.8e-4 2.3234,0.89949 2.3234,1.20733 0,0.0868 -0.41671,-0.0998 -0.92604,-0.41457 -0.50932,-0.31478 -0.92604,-0.44729 -0.92604,-0.29446 0,0.15282 -0.20223,0.20025 -0.4494,0.1054 -0.36358,-0.13952 -0.33533,-0.0122 0.14795,0.66645 1.75928,2.47068 4.79937,14.96903 4.79937,19.731051 0,2.18079 -0.41207,1.81657 -0.48744,-0.43083 -0.17729,-5.286831 -2.64219,-15.713151 -4.48801,-18.983861 -1.06626,-1.88937 -1.11421,-1.92815 -1.63775,-1.32451 -0.54904,0.63305 -1.13568,0.67996 -1.59419,0.12749 -0.63539,-0.7656 -0.52584,-0.20442 0.26425,1.35365 0.83522,1.64704 1.03793,3.41484 0.54135,4.72094 -0.3118,0.82011 -1.22021,0.91057 -1.46297,0.14567 -0.28705,-0.90441 -0.599,-0.34284 -0.92119,1.65835 -0.16978,1.05455 -0.40985,2.39362 -0.53349,2.9757 -0.12363,0.58209 -0.30733,2.30849 -0.40821,3.83646 l -0.18343,2.77813 0.97441,-1.05834 0.9744,-1.05833 -0.1522,1.12448 c -0.0837,0.61846 -0.048,1.12448 0.0793,1.12448 0.34878,0 2.48702,-2.42149 3.02416,-3.42475 0.2592,-0.48414 0.53193,-0.8196 0.60606,-0.74547 0.0741,0.0741 -0.12785,0.59627 -0.44884,1.16031 l -0.58362,1.02553 1.225,-1.17041 c 1.08985,-1.04128 1.24307,-1.11426 1.38873,-0.66146 0.09,0.27993 0.26477,0.74708 0.38829,1.03812 0.6621,1.56011 -0.20371,-6.29852 -0.92583,-8.40341 -0.18776,-0.5473 -0.24761,-1.05304 -0.13299,-1.12388 0.11461,-0.0708 0.34965,0.49602 0.52231,1.25967 0.17267,0.76365 0.38408,1.62658 0.46981,1.91762 0.14735,0.50025 0.16416,0.49605 0.30762,-0.0768 0.0835,-0.33326 0.18221,1.20386 0.21943,3.41582 0.0675,4.01075 0.0662,4.02044 -0.46302,3.54149 -0.29188,-0.26415 -0.54221,-0.72971 -0.55628,-1.03457 -0.0141,-0.30487 -0.23325,0.2196 -0.48707,1.16548 -0.25382,0.94589 -0.43123,1.75907 -0.39424,1.80708 0.037,0.048 0.38966,-0.12397 0.78373,-0.38218 0.68982,-0.45198 0.73007,-0.45089 1.08128,0.0294 0.52102,0.71253 0.45619,1.29107 -0.30859,2.753671 -0.93217,1.78274 -1.34014,2.07548 -3.18182,2.28312 l -1.60626,0.18109 -1.23801,-1.66598 c -0.68091,-0.9163 -1.23802,-1.94832 -1.23802,-2.293391 0,-0.34507 -0.10456,-0.56278 -0.23236,-0.48379 -0.75182,0.46465 -0.32087,-5.70964 0.6907,-9.89595 0.13437,-0.55607 -0.099,-0.42571 -1.53904,0.85987 -0.93358,0.83342 -2.31335,1.77156 -3.06615,2.08476 -0.87972,0.36601 -1.42197,0.76776 -1.51774,1.12451 -0.21884,0.81514 -0.15185,6.934601 0.0944,8.624851 0.1166,0.80036 0.16744,1.50481 0.11297,1.56545 -0.28652,0.31893 -0.47087,-0.47864 -0.5767,-2.49502 -0.0648,-1.23499 -0.22199,-2.245431 -0.34926,-2.245431 -0.12728,0 -0.2314,0.3481 -0.2314,0.77356 0,0.425461 -0.13952,1.377961 -0.31003,2.116671 -0.25591,1.10864 -0.41067,1.3431 -0.88656,1.3431 -0.82072,0 -2.28401,-0.52622 -2.90446,-1.04449 -0.47769,-0.39903 -1.81854,-1.07218 -2.13566,-1.07218 -0.0695,0 -0.24693,0.31705 -0.39426,0.70454 -0.31936,0.83999 -0.14432,1.05915 1.24003,1.5526 0.75419,0.26883 0.86442,0.36854 0.41686,0.37708 -0.33465,0.006 -0.97266,-0.17672 -1.4178,-0.40692 -0.829,-0.42869 -0.833,-0.44913 -0.43768,-2.23755 0.0471,-0.21299 -0.15805,-0.41113 -0.47636,-0.46014 -0.45871,-0.0706 -0.66638,0.17837 -1.15704,1.38729 -0.51955,1.28009 -1.06204,2.09692 -1.06204,1.59912 z m 20.19711,-0.31173 c 0.0973,-0.0973 -0.0317,-0.41653 -0.28664,-0.70932 -0.458,-0.52593 -0.45571,-0.52699 0.19059,-0.0876 0.82816,0.563 1.55219,0.56529 2.16925,0.007 0.62694,-0.56736 0.6167,-0.87023 -0.0237,-0.70275 -0.27918,0.073 -0.72566,-0.006 -0.99219,-0.17526 -0.43576,-0.27698 -0.42175,-0.29459 0.13912,-0.17486 1.34583,0.28731 2.51611,-0.91592 2.21714,-2.279551 -0.12637,-0.57635 -0.42662,-0.58351 -1.27091,-0.0303 -0.36323,0.23799 -0.73192,0.3612 -0.81933,0.2738 -0.0874,-0.0874 0.0221,-0.87759 0.24338,-1.75596 l 0.4023,-1.59704 -0.9059,0.72793 c -0.49824,0.40036 -1.42103,1.17441 -2.05064,1.72012 -1.4763,1.27954 -2.13991,1.32533 -1.91736,0.13229 l 0.16041,-0.8599 -0.52421,0.62463 c -0.78614,0.93672 -0.64728,1.623961 0.69239,3.426741 0.85854,1.15533 1.39066,1.63717 1.80799,1.63717 0.32526,0 0.67102,-0.0796 0.76835,-0.17696 z m -10.98137,-4.254811 c 0.98943,-6.50794 0.96741,-6.18404 0.40596,-5.97196 -0.27146,0.10254 -1.01,0.75823 -1.64118,1.45708 -1.28239,1.41987 -2.63761,2.47151 -2.87677,2.23235 -0.0866,-0.0866 0.15394,-0.40239 0.53453,-0.70176 0.38059,-0.29938 0.94834,-0.90434 1.26166,-1.34436 l 0.56969,-0.80006 -1.01012,0.1895 c -1.10146,0.20664 -1.46421,0.4982 -2.60641,2.09494 -0.41639,0.58208 -0.89258,1.1774 -1.05821,1.32292 -0.16563,0.14552 -0.62913,0.83013 -1.03,1.52135 l -0.72886,1.256771 0.87105,0.003 c 0.82195,0.003 3.14253,1.01396 4.48239,1.95243 0.33409,0.234 0.98223,0.42546 1.4403,0.42546 h 0.83287 z m -8.12427,1.996921 c 0.11227,-0.18167 0.0615,-0.41936 -0.11325,-0.53016 -0.23257,-0.14748 -0.14813,-0.50095 0.3177,-1.329901 0.5793,-1.03087 0.58709,-1.08707 0.0896,-0.64626 -0.29966,0.26552 -0.73128,0.86084 -0.95916,1.32291 -0.29398,0.596091 -0.41608,0.693721 -0.42036,0.336111 -0.006,-0.487771 -0.0231,-0.488541 -0.53681,-0.0237 -0.53321,0.48255 -0.92311,0.47395 -0.5793,-0.0128 0.10123,-0.14331 0.81713,-0.782731 1.5909,-1.420941 0.84524,-0.69715 1.29056,-1.23225 1.11552,-1.34043 -0.16023,-0.099 -0.21241,-0.38573 -0.11595,-0.63711 0.13644,-0.35555 -0.0526,-0.30207 -0.85093,0.24078 -0.87074,0.59206 -1.03964,0.63266 -1.11418,0.2678 -0.0483,-0.23653 0.0389,-0.79381 0.19394,-1.2384 0.25131,-0.72092 0.2322,-0.78731 -0.17673,-0.61375 -2.0309,0.86196 -2.30467,0.8953 -2.45766,0.29922 -0.13366,-0.52077 -0.21247,-0.4746 -0.8656,0.50704 -1.08367,1.62875 -1.51961,3.48756 -1.00736,4.295371 0.12146,0.19154 0.68518,0.52131 1.25271,0.73281 1.20611,0.44947 4.31666,0.30951 4.63689,-0.20863 z m 1.81895,-4.492331 c 0,-0.45528 -0.0659,-0.49125 -0.39688,-0.21657 -0.60789,0.50451 -0.47189,0.0333 0.23173,-0.80296 0.34591,-0.41108 0.70975,-1.28816 0.80904,-1.95025 0.0992,-0.66176 0.29262,-1.27254 0.42973,-1.35728 0.47918,-0.29615 0.24339,-1.14742 -0.47416,-1.71184 l -0.72346,-0.56907 -0.61362,0.71338 c -0.47268,0.54952 -0.5763,0.90373 -0.45112,1.54206 0.12168,0.62045 0.093,0.72895 -0.11407,0.4318 -0.41975,-0.6023 -0.34061,-1.29499 0.2413,-2.11221 0.4661,-0.65458 0.48027,-0.77663 0.12446,-1.07193 -0.66647,-0.55312 -1.64723,0.0734 -1.85588,1.18559 -0.0966,0.51493 -0.10438,1.1219 -0.0173,1.34884 0.091,0.23703 0.047,0.34382 -0.10322,0.25096 -0.34739,-0.21471 -0.33383,-1.61765 0.0221,-2.28267 0.25954,-0.48495 0.21125,-0.52279 -0.56863,-0.44562 -1.3264,0.13124 -1.51019,0.7034 -0.86419,2.69031 l 0.55357,1.70264 -0.95896,0.98747 c -1.00755,1.0375 -0.86726,1.09085 0.94918,0.36095 1.06381,-0.42747 1.27604,-0.2258 0.89939,0.85465 -0.163,0.46758 -0.24412,0.90241 -0.18026,0.96627 0.0639,0.0639 0.51424,-0.18757 1.00085,-0.55873 l 0.88474,-0.67482 0.3461,0.7819 c 0.37537,0.84802 0.82959,0.8136 0.82959,-0.0629 z m 1.29411,-1.20876 c 0.7947,-1.03068 0.82159,-1.12447 0.32242,-1.12447 -0.56622,0 -1.35195,1.17128 -1.35195,2.01533 0,0.24976 0.0366,0.4045 0.0813,0.34387 0.0447,-0.0606 0.47142,-0.61626 0.94828,-1.23473 z m 4.12453,-2.19865 c 1.47879,-0.66431 4.02411,-2.96538 5.18837,-4.69049 0.42354,-0.62757 0.7691,-1.22436 0.76792,-1.3262 -0.001,-0.10185 0.52781,-0.66143 1.17555,-1.24351 l 1.17771,-1.05833 -0.52048,-2.11667 c -1.03755,-4.21947 -0.98596,-4.10104 -1.78637,-4.10104 -0.64196,0 -0.76685,-0.14431 -1.05398,-1.21783 -0.28829,-1.07791 -0.37482,-1.17707 -0.75311,-0.86311 -0.23507,0.19509 -0.70851,0.31787 -1.05208,0.27285 -0.42252,-0.0554 -0.62467,0.0506 -0.62467,0.32733 0,0.30972 0.18516,0.37216 0.76166,0.25686 0.4331,-0.0866 0.83931,-0.0267 0.94166,0.13891 0.11354,0.18372 -0.0768,0.29124 -0.51556,0.29124 -0.57571,0 -3.03985,1.38576 -3.03985,1.70952 0,0.0531 0.32743,-0.0237 0.72761,-0.17083 0.79295,-0.29144 2.18281,0.0767 2.18281,0.57822 0,0.16893 -0.2915,0.12719 -0.74325,-0.10642 -0.41083,-0.21245 -0.89371,-0.29136 -1.07967,-0.17643 -0.22214,0.13729 -0.0452,0.26618 0.52092,0.37939 0.47155,0.0943 0.78997,0.23886 0.70761,0.32122 -0.0824,0.0824 -0.60739,0.0227 -1.16674,-0.13266 -0.55934,-0.15532 -1.43371,-0.26684 -1.94304,-0.24784 -0.66088,0.0247 -0.73663,0.0624 -0.26458,0.13168 1.52944,0.22456 3.43959,0.72252 3.43959,0.89667 0,0.10318 -0.68461,0.0255 -1.52136,-0.17272 -0.83674,-0.19817 -1.96292,-0.38046 -2.50261,-0.40508 -0.5397,-0.0246 -0.91174,-0.15727 -0.82677,-0.29476 0.0917,-0.14834 -0.0876,-0.17314 -0.44093,-0.061 -0.40563,0.12874 -0.53772,0.0956 -0.41439,-0.10395 0.0996,-0.16111 0.47869,-0.29293 0.84249,-0.29293 0.41738,0 0.59447,-0.10839 0.47992,-0.29374 -0.10881,-0.17606 -0.56558,-0.2339 -1.1401,-0.14438 -0.88427,0.1378 -0.91875,0.11956 -0.44496,-0.23542 0.69264,-0.51894 1.10649,-0.48451 1.73537,0.14438 0.74213,0.74212 1.22573,0.65946 1.54786,-0.26459 0.15218,-0.43656 0.33869,-0.79375 0.41445,-0.79375 0.0758,0 0.0601,0.20223 -0.0347,0.4494 -0.14012,0.36515 -0.0165,0.33837 0.65924,-0.14281 0.78772,-0.56091 0.80776,-0.61699 0.37919,-1.06076 -0.43227,-0.4476 -0.47854,-0.44122 -1.03518,0.14282 -0.72596,0.76169 -1.13711,0.78025 -1.13711,0.0513 0,-0.42518 -0.12436,-0.52751 -0.51648,-0.42496 -0.28406,0.0743 -0.56542,-0.001 -0.62523,-0.16758 -0.0598,-0.16646 -0.20044,-0.21735 -0.31249,-0.11309 -0.11204,0.10425 0.16112,0.60508 0.60703,1.11295 0.49739,0.56649 0.86086,0.80002 0.94037,0.6042 0.0713,-0.17557 0.13901,-0.0513 0.1505,0.27611 0.0301,0.85773 -0.31629,0.73967 -1.42259,-0.48488 -0.89743,-0.99334 -0.9876,-1.03539 -1.12159,-0.52299 -0.20086,0.76805 -4.0005,3.55315 -6.56306,4.81065 -2.28158,1.11962 -3.30815,2.03845 -3.30582,2.95885 0.003,1.14368 0.57038,2.59513 1.37121,3.50723 0.7653,0.87163 0.84379,0.90147 1.29554,0.49264 0.2919,-0.26416 1.06692,-0.47013 1.9721,-0.52411 1.33065,-0.0793 1.62406,0.004 2.72493,0.77672 0.85931,0.60293 1.25911,1.08042 1.31743,1.57341 0.15498,1.31023 2.19868,0.75465 2.68899,-0.73101 0.35281,-1.06904 0.64792,-1.17744 1.12515,-0.41328 0.45379,0.72663 0.75855,0.66821 1.72537,-0.33073 0.95036,-0.98194 1.65281,-2.49165 1.65281,-3.55222 0,-0.47768 0.3307,-1.06362 0.96955,-1.71787 0.82667,-0.84658 0.98752,-1.20956 1.09147,-2.46296 0.10561,-1.27362 0.0647,-1.44811 -0.30587,-1.30589 -0.72689,0.27893 -0.83158,-0.63924 -0.155,-1.35942 0.33481,-0.3564 0.73683,-0.64617 0.89336,-0.64395 0.18501,0.003 0.19202,0.0721 0.02,0.19844 -0.14552,0.10691 -0.49701,0.46848 -0.78109,0.80349 l -0.5165,0.60909 0.68655,-0.26102 c 0.87681,-0.33336 1.76134,-0.10542 1.77702,0.45794 0.007,0.24033 0.0878,1.1043 0.18028,1.91993 0.16438,1.45006 0.14614,1.50492 -0.82218,2.47324 -0.54466,0.54466 -1.33044,1.10887 -1.74617,1.25379 -0.56051,0.1954 -0.83713,0.53469 -1.07024,1.31273 -0.70371,2.34877 -3.41073,4.32151 -6.43892,4.69235 -1.21793,0.14916 -1.32986,0.22283 -1.41037,0.9283 l -0.0874,0.76628 1.54266,-0.14752 c 0.84846,-0.0811 2.13558,-0.41389 2.86027,-0.73943 z m -9.31719,-5.34197 c -1.63661,-1.701 -1.29354,-3.10885 0.75758,-3.10885 1.32132,0 3.34671,0.49277 4.14692,1.00894 1.53117,0.98765 -0.37248,2.94642 -2.87228,2.95545 -1.01618,0.004 -1.33443,-0.13031 -2.03222,-0.85554 z m -0.61322,4.78035 c -0.33295,-1.16092 -0.68724,-1.45421 -0.90975,-0.75313 -0.12077,0.3805 -0.0264,0.74721 0.2793,1.08497 0.67512,0.746 0.90489,0.62506 0.63045,-0.33184 z m 13.95319,-0.71291 c 0.46335,-0.23618 1.61725,-1.08426 2.56422,-1.88463 1.84992,-1.56353 2.43889,-2.65146 2.14927,-3.97008 l -0.17422,-0.79324 -1.16951,0.95832 c -0.64323,0.52708 -1.16952,1.06787 -1.16952,1.20176 0,0.42 -1.11478,1.87794 -2.77049,3.62327 -1.65392,1.74346 -1.52813,1.93418 0.57025,0.8646 z m -4.45217,-0.53273 c 0.2263,-0.14339 0.29262,-0.43677 0.17939,-0.79354 -0.221,-0.69629 -0.56461,-0.52616 -0.73473,0.36377 -0.13521,0.70729 -0.0215,0.79528 0.55534,0.42977 z m 11.14102,-3.71575 c 0.64439,-1.20405 0.30921,-2.84341 -1.24857,-6.10679 -0.45257,-0.94807 -1.02228,-2.31117 -1.26602,-3.02911 -0.61743,-1.81859 -1.11346,-2.48815 -2.17049,-2.92981 -0.79989,-0.33421 -0.98244,-0.33265 -1.47539,0.0126 -0.4745,0.33235 -0.49105,0.39403 -0.10578,0.39403 0.31778,0 0.55365,0.36227 0.7752,1.19062 0.27771,1.03831 0.40979,1.19063 1.03245,1.19063 0.61376,0 0.77321,0.17377 1.13575,1.23775 0.23196,0.68077 0.42174,1.44136 0.42174,1.6902 0,0.71752 1.29138,5.05472 1.78699,6.00173 0.51943,0.99254 0.73345,1.05942 1.11412,0.34813 z m -6.0761,-1.85369 c 0,-0.1057 -0.0784,-0.27052 -0.1741,-0.36627 -0.23347,-0.23347 -0.91569,0.35012 -0.74056,0.63349 0.15532,0.25131 0.91466,0.0295 0.91466,-0.26722 z m 0.95909,-1.2157 c -0.24863,-0.6479 -0.94804,-0.006 -0.76327,0.70095 0.12549,0.47991 0.1853,0.49581 0.53803,0.14308 0.22432,-0.22432 0.32224,-0.59124 0.22524,-0.84403 z m 0.99697,-0.27694 c 0.24829,-0.64702 0.1966,-0.83397 -0.28127,-1.01735 -0.59043,-0.22657 -0.90736,0.34258 -0.52854,0.94917 0.37272,0.59681 0.59963,0.61592 0.80981,0.0682 z m 0.42113,-1.36742 c -0.011,-0.53735 -0.50738,-0.92318 -0.96143,-0.74726 -0.47211,0.18291 -0.47125,0.20334 0.0239,0.56772 0.56368,0.41484 0.94385,0.48764 0.93756,0.17954 z m -0.46035,-1.78594 c -0.0696,-0.3638 -0.29116,-0.66146 -0.49248,-0.66146 -0.39773,0 -0.45527,0.25334 -0.20543,0.9044 0.26744,0.69696 0.83951,0.49782 0.69791,-0.24294 z m -5.81494,-4.26306 0.54368,-0.69118 0.50911,0.62504 0.50911,0.62503 -0.13005,-0.59531 c -0.0715,-0.32742 -0.11064,-0.59531 -0.0869,-0.59531 0.0237,0 0.42769,0.11029 0.89771,0.24509 0.87431,0.25075 1.51232,-0.0878 0.66712,-0.35403 -1.14682,-0.36119 -3.73413,-0.55845 -4.69563,-0.35801 -1.32707,0.27666 -2.00549,0.87884 -0.71902,0.63821 0.61475,-0.11498 0.81834,-0.0748 0.68814,0.13589 -0.12947,0.2095 0.0315,0.24487 0.53713,0.11797 0.63976,-0.16057 0.70252,-0.11974 0.5508,0.35829 -0.23526,0.74125 0.0777,0.67612 0.72883,-0.15168 z m 3.67035,-1.67349 c 0.49915,-0.40962 0.56767,-0.60577 0.34113,-0.97644 -0.15591,-0.25511 -0.45357,-0.51809 -0.66145,-0.5844 -0.27665,-0.0882 -0.25482,0.0185 0.0814,0.39797 0.35438,0.39998 0.38765,0.59028 0.14552,0.83241 -0.45398,0.45398 -1.11933,0.38575 -1.61864,-0.16598 -0.50808,-0.56141 -0.16079,-1.09399 0.7359,-1.12852 0.30285,-0.0117 0.39132,-0.0815 0.20031,-0.15813 -0.63886,-0.2563 -1.64229,0.16774 -1.64229,0.69402 0,0.46505 1.13108,1.60166 1.59387,1.60166 0.10978,0 0.48067,-0.23066 0.82422,-0.51259 z m -4.3188,-0.28891 c 1.6324,-0.99524 0.631,-2.61081 -1.10513,-1.7829 -1.12125,0.53468 -1.50433,1.46303 -0.81247,1.96893 0.63986,0.46788 0.88389,0.4442 1.9176,-0.18603 z m -1.70907,-0.39249 c -0.22901,-0.59681 0.39807,-1.18726 1.26093,-1.18726 0.58042,0 0.76135,0.12355 0.76135,0.51986 0,0.90344 -1.71456,1.46929 -2.02228,0.6674 z m 1.4402,-0.18184 c 0.45071,-0.45071 0.39327,-0.7415 -0.14552,-0.73678 -0.67191,0.006 -1.22123,0.4191 -1.01047,0.76012 0.23788,0.3849 0.75826,0.37439 1.15599,-0.0233 z m 2.43417,1.01997 c 0,-0.0502 -0.2188,-0.2893 -0.48623,-0.53131 -0.45513,-0.4119 -0.51696,-0.40606 -0.96705,0.0913 -0.47314,0.52282 -0.46536,0.53131 0.48623,0.53131 0.53187,0 0.96705,-0.0411 0.96705,-0.0913 z m 5.00503,-0.0132 c -0.0606,-0.0575 -0.55673,-0.28952 -1.10243,-0.51567 -1.05841,-0.43863 -1.39695,-0.18509 -0.39688,0.29723 0.56298,0.27151 1.73556,0.44234 1.49931,0.21843 z m -3.06637,-0.82156 c -0.0763,-0.44182 -0.78028,-0.75647 -1.27104,-0.56815 -0.38342,0.14714 -0.40487,0.24714 -0.12526,0.58405 0.36189,0.43605 1.4722,0.42341 1.3963,-0.0159 z m 1.82736,-1.69154 c -0.74862,-1.00445 -2.06338,-1.70202 -2.84035,-1.50701 -0.35831,0.0899 -0.83223,0.51306 -1.05315,0.94028 -0.56014,1.08318 -0.52598,1.41736 0.11008,1.07695 0.85438,-0.45725 1.67893,-0.30384 2.92781,0.54471 1.17859,0.8008 1.19153,0.80304 1.28014,0.22187 0.0492,-0.3229 -0.14181,-0.89746 -0.42453,-1.2768 z m -3.91021,-1.40568 c 0.16958,-0.39895 0.0903,-0.42227 -0.68226,-0.2007 -0.48078,0.13789 -1.11328,0.48984 -1.40556,0.78212 l -0.53142,0.53142 h 0.58572 c 0.32215,0 0.7297,0.23055 0.90567,0.51233 0.30006,0.48047 0.33911,0.4599 0.62797,-0.33073 0.16941,-0.46368 0.39435,-1.04618 0.49988,-1.29444 z m 12.56536,11.53007 c -0.50149,-0.52791 -0.74345,-0.90836 -0.53768,-0.84543 0.34671,0.10604 1.81863,1.80529 1.56378,1.80529 -0.0629,0 -0.52461,-0.43194 -1.0261,-0.95986 z"
       style="fill:#000000;stroke-width:0.26458332"
       inkscape:connector-curvature="0"
       inkscape:label="line" />
    <path
       style="fill:#8d930e;fill-opacity:1;stroke:none;stroke-width:0.14366937;stroke-opacity:1"
       d="m 28.474879,67.70704 c 0.04414,-0.296318 0.12279,-0.926668 0.174768,-1.400777 0.149437,-1.363048 0.435508,-1.932571 1.122049,-2.233823 0.323242,-0.141836 1.557481,-0.398096 2.742754,-0.569466 6.419344,-0.928126 11.084187,-3.109454 15.033865,-7.029988 2.373248,-2.355738 3.295324,-3.83405 4.485616,-7.191542 0.624436,-1.761368 1.192743,-2.376907 3.050842,-3.304396 2.101653,-1.049062 3.240595,-1.883782 5.26355,-3.857613 2.084562,-2.033943 2.408528,-2.602644 2.408528,-4.228021 0,-1.725719 -0.699531,-8.442262 -0.934194,-8.969677 -0.341165,-0.766774 -1.186816,-1.109912 -2.729375,-1.107493 -1.087002,0.0017 -1.497408,0.07509 -2.575768,0.460562 -0.70551,0.252194 -1.304924,0.436355 -1.332033,0.409246 -0.07666,-0.07666 1.972358,-2.365749 2.954739,-3.300933 0.484964,-0.461666 0.845494,-0.898062 0.801178,-0.969769 -0.171486,-0.277468 -0.785028,-0.106467 -1.62104,0.451801 -1.053501,0.7035 -2.039133,1.769995 -2.482802,2.686493 -0.431185,0.890708 -0.45623,2.032913 -0.05436,2.478822 0.263687,0.292579 0.372459,0.311147 1.321435,0.225576 l 1.034096,-0.09325 0.102738,0.544071 c 0.150271,0.795804 -0.191804,4.725229 -0.524649,6.026638 -0.374987,1.466189 -0.897951,2.298865 -2.579404,4.107003 -2.382456,2.561952 -2.825084,3.372351 -3.111677,5.697092 -0.47099,3.820518 -2.282721,7.280892 -5.391335,10.297358 -1.68374,1.63383 -2.435558,2.044651 -3.175783,1.735365 -0.28838,-0.120492 -0.705719,-0.512973 -1.035716,-0.974025 -0.303992,-0.424717 -0.748343,-0.982329 -0.987447,-1.239138 -0.886281,-0.951907 -1.654884,-0.448733 -2.464431,1.613365 -0.672061,1.711894 -1.076207,2.362719 -1.9614,3.158584 -0.870898,0.783012 -1.45579,1.105661 -2.615452,1.442784 -1.825647,0.53073 -3.136353,-0.229386 -3.458569,-2.005722 -0.165119,-0.910279 -0.629758,-1.664972 -1.644658,-2.671334 -1.73035,-1.715796 -4.604371,-3.510296 -6.338545,-3.957703 -0.765673,-0.197538 -1.340729,-0.224789 -3.230214,-0.153071 -3.534874,0.13417 -5.50726,0.644972 -7.06536,1.829763 C 10.840513,56.23456 10.489604,56.125527 9.2801644,54.875368 7.3438002,52.87381 6.0729458,50.829855 5.1767745,48.275758 4.7525485,47.06671 4.2834193,44.766026 4.2834193,43.894602 c 0,-1.414613 1.0428887,-3.093055 2.8002632,-4.50679 1.5260024,-1.227606 3.2682415,-2.266566 7.2565925,-4.327368 3.641896,-1.881788 6.309955,-3.45343 9.452844,-5.568274 5.387367,-3.625151 9.031533,-6.761517 9.662468,-8.316041 0.237525,-0.585223 0.385652,-0.772228 0.611684,-0.772228 0.19688,0 1.047916,0.776165 2.503771,2.283498 2.777209,2.875409 3.603814,3.468658 4.117423,2.955049 0.169403,-0.169404 0.230058,-0.504478 0.228443,-1.261984 -0.0025,-1.171465 -0.131877,-1.532791 -0.423165,-1.181811 -0.298067,0.35915 -0.649192,0.261779 -1.471494,-0.408063 -1.30084,-1.059657 -3.131569,-3.519943 -3.131569,-4.208463 0,-0.445488 0.455574,-0.362598 0.945229,0.171982 l 0.497001,0.542599 1.141235,-0.08801 c 1.394568,-0.107541 1.505982,-0.02477 1.644626,1.221763 0.231696,2.083155 1.087842,2.097234 3.235171,0.0532 1.324445,-1.260734 1.775706,-1.567412 2.13743,-1.452606 0.364564,0.115709 1.892857,1.72376 1.892857,1.991642 0,0.115017 -0.210117,0.41556 -0.466926,0.667872 -0.639446,0.62825 -3.243313,2.378118 -3.362047,2.259385 -0.05288,-0.05288 -0.02113,-0.346498 0.07055,-0.652493 0.200744,-0.670028 0.21681,-1.3132 0.0328,-1.3132 -0.233681,0 -0.666139,0.748315 -1.240133,2.145892 -1.158197,2.820021 -2.207617,3.018064 -4.583463,0.864977 -1.062205,-0.962612 -1.902512,-1.422386 -2.608698,-1.427351 -0.875655,-0.0062 -2.219862,0.660458 -3.195292,1.584597 -0.522058,0.494606 -0.172127,0.555676 1.789692,0.312339 1.955711,-0.242579 2.947625,-0.160416 3.38874,0.280699 0.469403,0.469405 0.08142,0.709936 -1.356555,0.841001 -1.616079,0.147299 -2.548268,0.62287 -2.548268,1.30004 0,0.195862 0.7401,0.160023 1.663789,-0.08057 0.863278,-0.224856 1.101858,-0.191982 0.976552,0.134558 -0.04384,0.114242 0.07901,0.302318 0.286103,0.43801 0.380664,0.24942 0.976492,0.355612 4.04152,0.720302 1.027236,0.122225 3.290029,0.503911 5.028428,0.848192 3.535036,0.700095 4.648593,0.851064 4.939083,0.669607 0.365914,-0.228572 0.01158,-0.43665 -1.606086,-0.94317 -1.889966,-0.591781 -4.000519,-1.077878 -6.850545,-1.577798 -1.131935,-0.198552 -2.091188,-0.394128 -2.131672,-0.434613 -0.04049,-0.04049 0.632167,-0.07323 1.49478,-0.07276 1.734141,9.34e-4 3.487755,0.234582 5.878472,0.783228 1.772885,0.406859 3.232561,0.484344 3.232561,0.171596 0,-0.256021 -0.800916,-0.591915 -2.29871,-0.964048 -1.617046,-0.401763 -1.983044,-0.707651 -1.202011,-1.0046 0.539346,-0.205059 1.692052,0.03946 3.096035,0.656759 1.325453,0.582768 2.02891,0.624098 2.100355,0.123403 0.110718,-0.775916 -1.575188,-1.694317 -3.466374,-1.888315 -1.315883,-0.134984 -2.329723,-0.026 -3.720911,0.4 -0.610335,0.186891 -1.15987,0.288712 -1.22119,0.22627 -0.411854,-0.419398 5.357031,-3.777238 7.769704,-4.522436 0.541606,-0.167286 1.229373,-0.304156 1.528368,-0.304156 0.311315,0 0.681393,-0.111555 0.866008,-0.261047 0.269743,-0.218425 0.295979,-0.310378 0.160689,-0.563172 -0.332358,-0.621015 -1.241332,-0.712303 -3.774758,-0.379099 -0.557327,0.0733 -0.715124,0.03806 -0.969768,-0.216583 -0.381656,-0.381656 -0.387613,-0.795326 -0.01679,-1.166147 0.241408,-0.241407 0.478898,-0.287339 1.485695,-0.287339 1.404275,0 2.269993,-0.229686 3.259859,-0.864882 1.046754,-0.671699 1.142962,-0.550885 2.079609,2.611494 0.91054,3.074236 1.096404,3.287311 2.992597,3.430725 0.735754,0.05565 1.484399,0.17967 1.663656,0.275606 0.408299,0.218515 1.03547,1.554819 1.520195,3.239054 0.450208,1.564307 3.664036,14.185921 3.664036,14.389711 0,0.07935 -0.950043,0.979486 -2.111206,2.000291 -3.322802,2.921149 -4.391928,4.039303 -4.977146,5.20539 -2.117714,4.219685 -6.73215,9.419867 -12.031172,13.558382 -3.757817,2.934838 -6.097976,4.049032 -10.620035,5.0564 -1.251977,0.2789 -6.560279,0.951099 -7.510753,0.951099 -0.07094,0 -0.09286,-0.242442 -0.04872,-0.53876 z M 23.74353,52.238982 c 3.654591,-1.099674 6.26461,-3.44366 6.252749,-5.615422 -0.0036,-0.651997 -0.460502,-1.525658 -1.084495,-2.073532 -2.547465,-2.236702 -11.842136,-4.058542 -15.527964,-3.043621 -1.615228,0.444766 -2.639386,1.679765 -2.630589,3.172142 0.0099,1.682606 0.869268,3.273424 2.933038,5.429608 2.308135,2.411492 2.883877,2.642478 6.40078,2.567981 2.070691,-0.04386 2.533205,-0.09916 3.656481,-0.437156 z"
       id="path6192"
       inkscape:connector-curvature="0"
       transform="matrix(0.33859607,0,0,0.34454976,148.27947,70.525089)"
       inkscape:label="skin1" />
    <path
       style="fill:#8d930e;fill-opacity:1;stroke:none;stroke-width:0.14366937;stroke-opacity:1"
       d="m 73.125695,95.38823 c -1.584656,-0.808905 -5.506948,-5.624542 -6.984008,-8.574691 -1.227138,-2.450978 -0.981914,-3.837144 1.10626,-6.253305 0.395155,-0.457221 0.749069,-0.800707 0.786474,-0.763302 0.03741,0.03741 -0.04381,0.689059 -0.180485,1.448119 -0.542676,3.013966 0.167322,3.700215 2.507308,2.423438 1.083201,-0.591031 1.973495,-1.262336 4.527461,-3.413824 2.703337,-2.277319 7.003059,-5.708416 7.06986,-5.641615 0.03138,0.03138 -0.300041,1.496836 -0.736496,3.256566 -0.805289,3.246833 -1.201231,5.51619 -1.037065,5.943996 0.108619,0.283058 0.772396,0.312609 1.349857,0.06009 0.221018,-0.09665 0.91906,-0.477292 1.551205,-0.845878 1.231952,-0.718314 2.214884,-1.080244 2.566892,-0.945167 0.657623,0.252354 1.058278,1.886968 0.804942,3.284038 -0.394864,2.177541 -1.81727,3.754539 -3.935742,4.363494 -0.845968,0.243173 -1.734371,0.237264 -3.387,-0.02253 -0.589808,-0.09272 -0.629344,-0.08084 -0.450774,0.135387 0.343697,0.41618 1.094748,0.802058 2.024865,1.040344 0.764199,0.195778 1.045996,0.204835 1.821334,0.05854 1.638603,-0.309182 1.683338,0.240641 0.138455,1.701725 -1.102222,1.042438 -1.903001,1.38821 -3.174706,1.370823 -1.246044,-0.01704 -1.949653,-0.272572 -3.563833,-1.294307 -0.695818,-0.440434 -1.296173,-0.76974 -1.334123,-0.73179 -0.03795,0.03795 0.247471,0.449186 0.634268,0.913862 0.782456,0.939994 1.174797,1.622906 1.174797,2.044862 0,0.349078 -0.611552,0.582075 -1.795868,0.684212 -0.70359,0.06068 -0.976305,0.016 -1.483878,-0.243094 z"
       id="path6202"
       inkscape:connector-curvature="0"
       transform="matrix(0.33859607,0,0,0.34454976,148.27947,70.525089)"
       inkscape:label="skin2" />
    <path
       style="fill:#8d930e;fill-opacity:1;stroke:none;stroke-width:0.14366937;stroke-opacity:1"
       d="m 41.253655,20.176031 c -0.04809,-0.125329 0.01859,-0.609237 0.148179,-1.075351 0.436437,-1.569778 0.306638,-1.702041 -1.332046,-1.357333 -0.570442,0.119996 -1.261495,0.218175 -1.535673,0.218175 -0.460233,0 -0.486237,-0.02292 -0.338717,-0.298565 0.390353,-0.729383 -0.174501,-0.857169 -2.379631,-0.53834 -1.903641,0.275238 -2.130135,-0.07176 -0.538358,-0.824794 1.193108,-0.56443 3.225053,-1.027839 4.995186,-1.13921 4.358662,-0.274232 12.858408,0.968295 12.858408,1.879695 0,0.627951 -1.394265,0.639397 -3.762414,0.03089 -1.002584,-0.257619 -1.866379,-0.424899 -1.919545,-0.371733 -0.05317,0.05317 0.03889,0.726151 0.204565,1.495523 0.165677,0.769371 0.281682,1.418406 0.257788,1.442299 -0.03624,0.03624 -1.761237,-1.990198 -2.550131,-2.995755 -0.219746,-0.280099 -0.259913,-0.248312 -1.241262,0.982281 -0.93397,1.171181 -2.493035,2.780091 -2.693963,2.780091 -0.04672,0 -0.124293,-0.102542 -0.172386,-0.22787 z"
       id="path6210"
       inkscape:connector-curvature="0"
       transform="matrix(0.33859607,0,0,0.34454976,148.27947,70.525089)"
       inkscape:label="skin3" />
    <path
       style="fill:#8d930e;fill-opacity:1;stroke:none;stroke-width:0.14366937;stroke-opacity:1"
       d="m 70.871751,50.409202 c -0.983732,-1.088873 -2.248409,-4.133488 -3.899914,-9.388747 -0.954991,-3.038881 -2.148233,-7.480469 -2.335123,-8.691997 -0.370805,-2.403768 -0.500441,-3.014855 -0.975298,-4.597419 -1.26997,-4.232457 -1.910351,-5.024514 -4.065291,-5.028164 -1.499116,-0.0025 -1.943547,-0.529585 -2.728866,-3.236129 -0.781242,-2.692491 -1.463332,-3.660264 -2.579766,-3.660264 -0.59823,0 -0.550091,-0.20394 0.172452,-0.730587 1.468657,-1.070474 2.103289,-1.193249 3.596266,-0.695728 3.763121,1.254026 5.264004,2.996873 7.290743,8.466113 1.12625,3.039233 2.067412,5.265071 3.7664,8.907501 4.13505,8.865058 5.247304,12.843367 4.489436,16.057804 -0.360235,1.527905 -1.369297,3.193891 -1.934492,3.193891 -0.141817,0 -0.500264,-0.268323 -0.796547,-0.596274 z"
       id="path6212"
       inkscape:connector-curvature="0"
       transform="matrix(0.33859607,0,0,0.34454976,148.27947,70.525089)"
       inkscape:label="skin4" />
    <path
       style="fill:#8d930e;fill-opacity:1;stroke:none;stroke-width:0.14366937;stroke-opacity:1"
       d="m 16.351646,76.672427 c 0,-0.260568 0.230104,-1.258858 0.511343,-2.218421 0.61624,-2.102564 0.625484,-2.87667 0.0377,-3.157071 -0.505167,-0.240988 -1.147553,-0.09404 -3.668147,0.839124 -2.331243,0.863059 -3.3706983,1.151918 -3.5477079,0.985888 -0.1871107,-0.175504 0.3642129,-0.844575 2.5968739,-3.151488 l 1.962658,-2.027932 -0.766443,-2.398495 c -1.59645,-4.995906 -1.742566,-5.539339 -1.825029,-6.787651 -0.06851,-1.037033 -0.03589,-1.330741 0.209321,-1.885089 0.241108,-0.545063 0.421423,-0.719965 1.061012,-1.029159 1.207019,-0.583505 4.035996,-0.91506 4.186517,-0.490659 0.03503,0.09877 -0.08318,0.473279 -0.262695,0.832235 -0.638659,1.277066 -0.843106,2.261594 -0.849006,4.088441 -0.0047,1.444069 0.04109,1.817353 0.281771,2.29871 0.194166,0.38833 0.398035,0.590334 0.628717,0.622962 0.315279,0.04459 0.334405,0.01164 0.250182,-0.431008 -0.731211,-3.843037 0.554267,-7.341661 2.978246,-8.105753 0.680137,-0.214394 0.889491,-0.225818 1.390032,-0.07585 0.7473,0.223897 1.720787,1.08692 1.720787,1.525525 0,0.179703 -0.398171,0.931832 -0.884826,1.671397 -0.486654,0.739566 -1.044209,1.69125 -1.239011,2.114853 -0.467888,1.017436 -0.573778,2.33967 -0.262439,3.277024 0.254271,0.765538 0.995278,1.768216 1.175809,1.591019 0.06082,-0.0597 0.03438,-0.609234 -0.05877,-1.221189 -0.238074,-1.564127 -0.206328,-2.593862 0.100741,-3.267687 0.258164,-0.566507 1.086751,-1.660557 2.282128,-3.013279 l 0.61079,-0.691186 1.360493,1.036109 c 2.004518,1.526579 2.795998,2.678954 2.802374,4.080184 0.0027,0.58271 -0.06636,0.762996 -0.432048,1.128683 -0.726007,0.726009 -1.050917,1.601605 -1.499603,4.041268 -0.445048,2.419885 -1.363753,4.473031 -2.808553,6.276629 -0.474739,0.592636 -1.016468,1.382148 -1.203841,1.754473 l -0.340679,0.676952 -0.447229,-1.000208 c -0.245976,-0.550116 -0.502127,-1.000209 -0.569225,-1.000209 -0.0671,0 -0.805459,0.514571 -1.640804,1.143489 -1.692973,1.274616 -2.933509,2.095941 -3.478953,2.303317 -0.34211,0.130072 -0.362483,0.11119 -0.362483,-0.335945 z"
       id="path6214"
       inkscape:connector-curvature="0"
       transform="matrix(0.33859607,0,0,0.34454976,148.27947,70.525089)"
       inkscape:label="skin5" />
    <path
       style="fill:#8d930e;fill-opacity:1;stroke:none;stroke-width:0.14366937;stroke-opacity:1"
       d="M 10.766379,65.581375 C 10.293074,65.143178 9.7721791,64.508579 9.6088354,64.171156 9.2322175,63.393168 9.228672,62.337037 9.5999318,61.518949 9.8258899,61.02104 9.9452387,60.907203 10.202435,60.944271 c 0.588007,0.08475 1.273128,1.453166 1.857371,3.709795 0.49753,1.921705 0.09351,2.211365 -1.293427,0.927309 z"
       id="path6216"
       inkscape:connector-curvature="0"
       transform="matrix(0.33859607,0,0,0.34454976,148.27947,70.525089)"
       inkscape:label="skin6" />
    <path
       style="fill:#8d930e;fill-opacity:1;stroke:none;stroke-width:0.14366937;stroke-opacity:1"
       d="M 8.5168447,89.73203 C 7.0138411,89.498391 6.0676088,89.182802 4.5630454,88.413352 2.9927034,87.610262 2.4946012,87.098832 2.2074234,85.994699 1.9364602,84.952908 1.9330796,84.179728 2.1931106,82.721292 c 0.4597376,-2.578529 1.6869144,-5.38358 3.6042427,-8.238491 1.5708878,-2.339058 1.8592899,-2.512954 2.2079055,-1.33128 0.5109159,1.731809 1.285896,1.711549 5.9748742,-0.156195 1.184739,-0.471914 2.205299,-0.806797 2.26791,-0.744186 0.06261,0.06261 -0.05458,0.646962 -0.260415,1.298557 -0.739026,2.339433 -0.941464,3.822098 -0.618607,4.530694 0.319617,0.701483 0.792852,0.520485 4.057521,-1.551876 1.441641,-0.915131 1.887167,-1.033941 1.662637,-0.443382 -0.233692,0.614658 -0.165567,1.428066 0.153587,1.833805 0.275362,0.350067 0.279611,0.40063 0.06802,0.80979 -0.339118,0.655783 -1.621824,1.894177 -4.097129,3.955592 -2.959529,2.464673 -4.166411,3.667324 -4.166411,4.1518 0,0.739639 0.96135,0.404541 2.435707,-0.849012 0.509949,-0.433578 0.970664,-0.788323 1.023812,-0.788323 0.05315,0 0.126114,0.355507 0.162148,0.790015 0.03603,0.434509 0.107127,0.831628 0.157988,0.882489 0.168518,0.168518 0.511113,-0.247902 1.120345,-1.361763 0.331185,-0.605507 0.862881,-1.48883 1.181548,-1.962939 0.6236,-0.927785 2.495472,-2.892583 2.628777,-2.759278 0.0446,0.0446 -0.276714,0.718571 -0.71402,1.497723 -1.219488,2.17277 -1.818523,3.503605 -1.818523,4.040088 0,0.337278 0.133077,0.639496 0.431008,0.97882 0.534854,0.609166 0.543348,0.965335 0.03514,1.473544 -0.435166,0.435164 -1.622735,0.781991 -3.483203,1.017259 -1.511874,0.191185 -6.3094522,0.152067 -7.6911323,-0.06271 z"
       id="path6220"
       inkscape:connector-curvature="0"
       transform="matrix(0.33859607,0,0,0.34454976,148.27947,70.525089)"
       inkscape:label="skin7" />
    <path
       style="fill:#fe0000;fill-opacity:1;stroke:none;stroke-width:0.14366937;stroke-opacity:1"
       d="M 44.510841,7.6535321 C 43.634055,6.3438456 42.79064,5.9034944 41.134611,5.890785 l -1.149355,-0.00882 1.166808,-1.1180736 c 1.357573,-1.3008701 2.792508,-2.1141854 4.71088,-2.670108 1.491919,-0.4323411 1.808624,-0.4543093 1.808624,-0.1254549 0,0.1327939 -0.454806,1.4010482 -1.010679,2.8183431 -1.492626,3.8057055 -1.507896,3.8260663 -2.150048,2.8668618 z"
       id="path6250"
       inkscape:connector-curvature="0"
       transform="matrix(0.33859607,0,0,0.34454976,148.27947,70.525089)"
       inkscape:label="red1" />
    <path
       style="fill:#8d930e;fill-opacity:1;stroke:none;stroke-width:0.14366937;stroke-opacity:1"
       d="M 24.138204,77.390256 C 23.7869,77.19561 22.962085,76.051233 22.961052,75.757033 c -3.38e-4,-0.09629 0.08253,-0.143172 0.184149,-0.104177 0.101621,0.039 0.534916,-0.190346 0.962878,-0.509649 0.427961,-0.319302 0.845864,-0.5582 0.928672,-0.530885 0.273768,0.09031 0.254638,1.843313 -0.02607,2.388753 -0.298062,0.579167 -0.426326,0.63638 -0.87248,0.389181 z"
       id="path6306"
       inkscape:connector-curvature="0"
       transform="matrix(0.33859607,0,0,0.34454976,148.27947,70.525089)"
       inkscape:label="skin8" />
    <path
       style="fill:#fe0000;fill-opacity:1;stroke:none;stroke-width:0.14366937;stroke-opacity:1"
       d="M 59.35549,11.426429 C 59.104614,11.319495 58.141698,10.737998 57.215678,10.134214 55.143128,8.782868 53.541922,7.9671872 52.374779,7.6681789 51.106588,7.3432834 49.583264,7.4594038 48.389914,7.9719385 c -0.513618,0.220595 -1.127804,0.4088419 -1.364859,0.4183262 -0.403893,0.01616 -0.430127,-0.014951 -0.417014,-0.4945299 0.02028,-0.7417228 1.189515,-3.0961897 1.960272,-3.9473698 0.708365,-0.7822785 1.749152,-1.4235563 2.55171,-1.5722289 0.713319,-0.1321414 2.385653,0.2515285 3.464485,0.7948285 2.423683,1.2205668 4.288234,2.969063 5.201102,4.8773712 0.37798,0.7901499 0.447515,1.1043972 0.451875,2.0421572 0.0063,1.363816 -0.174382,1.637551 -0.881995,1.335936 z"
       id="path6232"
       inkscape:connector-curvature="0"
       transform="matrix(0.33859607,0,0,0.34454976,148.27947,70.525089)"
       inkscape:label="red2" />
    <path
       style="fill:#fe0000;fill-opacity:1;stroke:none;stroke-width:0.14366937;stroke-opacity:1"
       d="m 42.930478,13.996645 c 0,-0.363664 1.864422,-2.212906 2.231071,-2.212906 0.37874,0 0.865508,0.350629 1.973211,1.421344 0.694651,0.671455 0.787233,0.816547 0.574678,0.900621 -0.139356,0.05512 -1.271631,0.104763 -2.516167,0.110317 -1.981027,0.0088 -2.262793,-0.01848 -2.262793,-0.219376 z"
       id="path6252"
       inkscape:connector-curvature="0"
       transform="matrix(0.33859607,0,0,0.34454976,148.27947,70.525089)"
       inkscape:label="red3" />
    <path
       style="fill:#fe0000;fill-opacity:1;stroke:none;stroke-width:0.14366937;stroke-opacity:1"
       d="m 38.547113,93.244118 c -1.106201,-0.2242 -2.254128,-0.708939 -3.362333,-1.419824 -2.748093,-1.762828 -6.565905,-3.593334 -9.710129,-4.655666 -1.564803,-0.528694 -1.899939,-0.590166 -3.628628,-0.665574 l -1.904595,-0.08308 1.548988,-2.586048 c 1.984669,-3.313424 2.479522,-4.031607 3.916133,-5.683512 0.648737,-0.745958 1.826484,-2.219894 2.617216,-3.275414 3.070519,-4.098726 4.163246,-5.160234 5.941962,-5.772202 0.741481,-0.255106 4.513899,-1.046025 4.595756,-0.963538 0.01894,0.01909 -0.409096,0.642456 -0.951193,1.385264 -1.308525,1.792999 -2.77914,3.396707 -4.213174,4.594472 -1.788191,1.493571 -2.218488,2.611006 -0.84723,2.200167 1.364918,-0.408939 3.987179,-2.569407 7.604943,-6.265675 3.402888,-3.47673 5.336962,-4.979699 5.933567,-4.610977 0.398845,0.2465 0.11848,2.475745 -2.195587,17.457564 l -1.608843,10.416029 -1.580363,0.02239 c -0.869199,0.01231 -1.83962,-0.03015 -2.15649,-0.09438 z"
       id="path6254"
       inkscape:connector-curvature="0"
       transform="matrix(0.33859607,0,0,0.34454976,148.27947,70.525089)"
       inkscape:label="red4" />
    <path
       style="fill:#fe0000;fill-opacity:1;stroke:none;stroke-width:0.14366937;stroke-opacity:1"
       d="m 48.319915,63.795019 c -0.210586,-0.340735 0.470538,-1.198546 3.638983,-4.582956 4.859321,-5.190537 7.37033,-8.405895 7.794397,-9.980758 0.106089,-0.393983 0.454575,-0.861345 1.181911,-1.585087 1.065421,-1.060154 5.533406,-4.757758 5.631042,-4.660123 0.201893,0.201893 0.644353,2.899022 0.644353,3.927815 0,3.277071 -2.155433,6.219585 -7.866259,10.738712 -3.87595,3.067141 -6.930842,4.94034 -9.634048,5.907403 -1.171837,0.419221 -1.26662,0.43524 -1.390379,0.234994 z"
       id="path6256"
       inkscape:connector-curvature="0"
       transform="matrix(0.33859607,0,0,0.34454976,148.27947,70.525089)"
       inkscape:label="red5" />
    <path
       style="fill:#ffffff;fill-opacity:1;stroke:none;stroke-width:0.14366937;stroke-opacity:1"
       d="m 38.397428,60.724561 c -0.110268,-0.439339 0.175571,-2.018108 0.498094,-2.751121 0.498073,-1.131992 0.992405,-1.193887 1.451797,-0.181776 0.306955,0.676271 0.369082,1.694728 0.130565,2.1404 -0.188176,0.351611 -1.38634,1.130267 -1.739208,1.130267 -0.149419,0 -0.291859,-0.140988 -0.341248,-0.33777 z"
       id="path6258"
       inkscape:connector-curvature="0"
       transform="matrix(0.33859607,0,0,0.34454976,148.27947,70.525089)"
       inkscape:label="white1" />
    <path
       style="fill:#ffffff;fill-opacity:1;stroke:none;stroke-width:0.14366937;stroke-opacity:1"
       d="m 52.562816,45.149177 c -0.406068,-0.328814 -0.244502,-0.801087 0.496684,-1.451858 0.732014,-0.642716 1.322734,-0.590369 1.720477,0.152463 l 0.284115,0.530617 -0.331848,0.353236 c -0.182516,0.19428 -0.613764,0.424223 -0.958329,0.510986 -0.813835,0.204926 -0.842996,0.202628 -1.211099,-0.09544 z"
       id="path6260"
       inkscape:connector-curvature="0"
       transform="matrix(0.33859607,0,0,0.34454976,148.27947,70.525089)"
       inkscape:label="white2" />
    <path
       style="fill:#ffffff;fill-opacity:1;stroke:none;stroke-width:0.14366937;stroke-opacity:1"
       d="m 55.941602,43.552163 c -0.557597,-1.078275 -0.348383,-2.546599 0.45263,-3.176675 0.494094,-0.388655 0.823538,-0.363623 1.180094,0.08967 0.553064,0.703107 0.350137,1.905931 -0.46531,2.758052 -0.730492,0.763347 -0.915783,0.815559 -1.167414,0.328958 z"
       id="path6262"
       inkscape:connector-curvature="0"
       transform="matrix(0.33859607,0,0,0.34454976,148.27947,70.525089)"
       inkscape:label="white3" />
    <path
       style="fill:#ffffff;fill-opacity:1;stroke:none;stroke-width:0.14366937;stroke-opacity:1"
       d="m 59.101908,40.588847 c -1.303344,-1.42292 -1.429525,-3.08832 -0.267465,-3.530135 0.831239,-0.316037 2.342045,0.529819 2.342045,1.311242 0,0.560931 -0.543744,2.002129 -0.90514,2.39908 -0.402987,0.442633 -0.631162,0.407476 -1.16944,-0.180187 z"
       id="path6264"
       inkscape:connector-curvature="0"
       transform="matrix(0.33859607,0,0,0.34454976,148.27947,70.525089)"
       inkscape:label="white4" />
    <path
       style="fill:#ffffff;fill-opacity:1;stroke:none;stroke-width:0.14366937;stroke-opacity:1"
       d="m 60.265361,36.031928 c -1.028423,-0.557881 -2.047005,-1.438748 -1.913489,-1.654781 0.05405,-0.08746 0.425798,-0.267802 0.8261,-0.400761 0.682151,-0.226574 0.767576,-0.226561 1.361353,2.04e-4 0.676068,0.258193 1.149516,0.794338 1.365032,1.545796 0.307686,1.072838 -0.269694,1.252337 -1.638996,0.509542 z"
       id="path6266"
       inkscape:connector-curvature="0"
       transform="matrix(0.33859607,0,0,0.34454976,148.27947,70.525089)"
       inkscape:label="white5" />
    <path
       style="fill:#ffffff;fill-opacity:1;stroke:none;stroke-width:0.14366937;stroke-opacity:1"
       d="m 59.261324,32.385483 c -0.465444,-0.465444 -0.958223,-1.750968 -0.958223,-2.499738 0,-0.61154 0.261079,-0.861682 0.899362,-0.861682 1.034636,0 1.940664,2.611788 1.192727,3.438249 -0.358779,0.396446 -0.682528,0.37451 -1.133866,-0.07683 z"
       id="path6268"
       inkscape:connector-curvature="0"
       transform="matrix(0.33859607,0,0,0.34454976,148.27947,70.525089)"
       inkscape:label="white6" />
    <path
       style="fill:#ffffff;fill-opacity:1;stroke:none;stroke-width:0.14366937;stroke-opacity:1"
       d="m 37.410881,14.076041 c -0.558074,-0.166861 -1.668225,-0.936749 -2.010316,-1.394151 -0.151036,-0.201946 -0.304098,-0.674054 -0.340138,-1.049128 -0.122515,-1.275043 0.888157,-2.60873 2.769789,-3.6550244 1.799036,-1.0003664 3.503904,-1.206475 4.748798,-0.574102 0.910463,0.4624915 1.250479,0.9407011 1.327272,1.8667188 0.118329,1.4268946 -0.870994,2.6553766 -3.14335,3.9032246 -1.80699,0.992295 -2.461902,1.168615 -3.352055,0.902462 z m 2.731452,-1.59131 c 1.566078,-0.585945 2.627192,-1.970117 2.425496,-3.1639438 -0.14424,-0.8537484 -0.673804,-1.1275584 -2.182092,-1.128245 -1.550771,-7.058e-4 -2.536059,0.3589341 -3.323366,1.2130615 -1.087796,1.1801183 -0.893354,2.7028103 0.411626,3.2234813 0.608793,0.2429 1.806482,0.178107 2.668336,-0.144354 z"
       id="path6270"
       inkscape:connector-curvature="0"
       transform="matrix(0.33859607,0,0,0.34454976,148.27947,70.525089)"
       inkscape:label="white7" />
    <path
       style="fill:#ffffff;fill-opacity:1;stroke:none;stroke-width:0.14366937;stroke-opacity:1"
       d="m 51.191467,14.803176 c -1.808292,-0.895944 -4.168471,-3.687986 -3.881597,-4.591847 0.306364,-0.965267 1.646774,-1.7448766 3.16325,-1.8398098 0.628394,-0.039338 1.167382,0.00539 1.436694,0.1192119 l 0.431008,0.182169 -0.790182,0.1279305 c -1.376881,0.2229174 -2.032973,0.433588 -2.454229,0.788051 -1.115393,0.9385414 -0.355737,2.7069604 1.592213,3.7065444 1.096944,0.562893 2.837752,0.204397 3.578154,-0.736872 0.535637,-0.680952 0.406508,-1.168399 -0.655939,-2.4761 -0.701166,-0.8630221 -0.774588,-1.0947043 -0.300249,-0.9474307 0.753316,0.2338906 1.842238,1.2867247 2.187858,2.1153487 0.208018,0.498724 0.207238,0.585729 -0.0093,1.042146 -0.129972,0.273897 -0.535924,0.74801 -0.902115,1.053586 -0.79848,0.666309 -2.443412,1.742076 -2.663529,1.741917 -0.08652,-6.2e-5 -0.415918,-0.128242 -0.731991,-0.284845 z"
       id="path6272"
       inkscape:connector-curvature="0"
       transform="matrix(0.33859607,0,0,0.34454976,148.27947,70.525089)"
       inkscape:label="white8" />
    <path
       style="fill:#ffffff;fill-opacity:1;stroke:none;stroke-width:0.14366937;stroke-opacity:1"
       d="m 60.186888,13.932322 c -1.745383,-0.457092 -3.46415,-1.349776 -3.46415,-1.799192 0,-0.262354 0.30802,-0.259452 1.353066,0.01275 0.917177,0.238895 4.069375,1.553068 4.490147,1.871975 0.233997,0.177348 0.176305,0.198763 -0.527447,0.195787 -0.4346,-0.0018 -1.267827,-0.128431 -1.851616,-0.281317 z"
       id="path6276"
       inkscape:connector-curvature="0"
       transform="matrix(0.33859607,0,0,0.34454976,148.27947,70.525089)"
       inkscape:label="white9" />
    <path
       style="fill:#5a8e99;fill-opacity:1;stroke:none;stroke-width:0.14366937;stroke-opacity:1"
       d="m 50.429636,12.195877 c -0.594263,-0.294154 -1.321375,-1.136084 -1.321375,-1.530033 0,-0.26118 1.112721,-0.7428166 1.724981,-0.7466512 0.683749,-0.00428 1.382057,0.2108232 1.959242,0.6035222 0.524928,0.357145 0.961181,1.112478 0.833979,1.443961 -0.23103,0.602055 -2.163641,0.740616 -3.196827,0.229201 z"
       id="path6282"
       inkscape:connector-curvature="0"
       transform="matrix(0.33859607,0,0,0.34454976,148.27947,70.525089)"
       inkscape:label="blue1" />
    <path
       style="fill:#5a8e99;fill-opacity:1;stroke:none;stroke-width:0.14366937;stroke-opacity:1"
       d="m 38.04177,11.68258 c -0.847894,-0.584388 -0.910222,-1.024774 -0.239907,-1.6950891 1.093258,-1.0932572 3.835591,-1.2523485 3.835591,-0.2225144 0,0.3642735 -1.181924,1.6459645 -1.779213,1.9293965 -0.635197,0.30142 -1.368939,0.296657 -1.816471,-0.01179 z"
       id="path6294"
       inkscape:connector-curvature="0"
       transform="matrix(0.33859607,0,0,0.34454976,148.27947,70.525089)"
       inkscape:label="blue2" />
    <path
       style="fill:#8d930e;fill-opacity:1;stroke:none;stroke-width:0.01340483;stroke-miterlimit:4;stroke-dasharray:none;stroke-opacity:1"
       d="m 17.71936,95.852812 c 0.707266,-1.099806 1.300602,-2.272844 2.165459,-4.28116 1.239651,-2.878636 1.667385,-3.583705 2.401175,-3.958057 0.61534,-0.313923 1.863542,-0.01113 2.236688,0.54258 0.202605,0.300645 0.19437,0.46728 -0.08464,1.71272 -0.702405,3.135379 -0.672927,3.98737 0.16076,4.646362 0.399155,0.315514 1.576395,0.929217 2.403739,1.253086 l 0.588339,0.23031 -4.98425,0.0025 -4.98425,0.0025 z"
       id="path6314"
       inkscape:connector-curvature="0"
       transform="matrix(0.33859607,0,0,0.34454976,148.27947,70.525089)"
       inkscape:label="skin8" />
    <path
       style="fill:#8d930e;fill-opacity:1;stroke:none;stroke-width:0.0330033;stroke-miterlimit:4;stroke-dasharray:none;stroke-opacity:1"
       d="m 80.071901,95.582811 c 2.621843,-0.847662 3.726236,-1.992467 5.908266,-6.124466 2.181338,-4.130686 2.351226,-5.938427 0.761591,-8.103942 -0.783078,-1.066767 -1.136644,-1.137939 -2.331241,-0.46928 -0.525677,0.29424 -1.419887,0.789148 -1.987131,1.099793 l -1.031353,0.564812 v -0.41902 c 0,-0.5341 1.147269,-5.036879 1.73832,-6.822528 0.433489,-1.309625 0.736928,-1.73159 0.736928,-1.024779 0,0.924406 1.892825,3.354405 2.539415,3.26009 0.193507,-0.02823 0.382996,-0.222974 0.448923,-0.461383 0.171511,-0.62024 0.160464,-9.934025 -0.01713,-14.438944 -0.176655,-4.481154 -0.306917,-6.023103 -0.508825,-6.023103 -0.07669,0 -0.223556,0.312413 -0.326374,0.69425 -0.144289,0.535846 -0.220255,0.634721 -0.332948,0.433349 -0.0803,-0.143493 -0.597389,-2.071003 -1.149081,-4.283356 -1.060575,-4.25304 -1.600759,-5.755134 -2.069665,-5.755134 -0.242782,0 -0.26762,0.143994 -0.192138,1.113862 0.04768,0.612624 0.284325,1.728591 0.525879,2.479925 1.26857,3.945774 2.865514,14.358449 3.324759,21.678672 0.114392,1.823342 -0.0069,3.102056 -0.269382,2.839589 -0.08182,-0.08182 -0.484428,-1.033501 -0.894685,-2.114853 -0.410259,-1.08135 -0.833177,-2.020016 -0.939817,-2.085922 -0.489804,-0.302717 -1.253252,0.254684 -4.504514,3.28879 -1.175822,1.097287 -2.160361,1.972564 -2.187865,1.945061 -0.0275,-0.0275 0.332517,-0.711506 0.800047,-1.520008 1.065197,-1.842051 1.627987,-3.093444 1.627987,-3.619919 0,-0.720479 -0.43528,-0.445309 -1.247344,0.788533 -1.800809,2.73613 -2.173317,3.254845 -3.525055,4.908627 -2.652844,3.245615 -5.731099,6.218789 -6.078698,5.871188 -0.239912,-0.239911 -0.197439,-2.279525 0.08874,-4.261663 0.167075,-1.157179 0.258135,-2.103961 0.202356,-2.103961 -0.05578,0 -1.314308,1.301657 -2.796731,2.892571 -1.482423,1.590913 -2.72854,2.859345 -2.769149,2.818736 -0.09155,-0.09155 0.537221,-9.169744 0.875607,-12.642 0.298294,-3.06086 0.622998,-5.435338 0.962344,-7.037373 0.137388,-0.648607 0.591172,-3.136231 1.008408,-5.528053 1.07649,-6.171028 1.618798,-8.135698 2.215435,-8.026074 0.140526,0.02582 0.454572,0.464493 0.697879,0.974832 0.608335,1.275985 1.155086,1.683021 2.13555,1.58984 1.500891,-0.142641 2.351659,-1.256452 2.890114,-3.783692 0.194632,-0.913504 0.235051,-1.75416 0.165252,-3.437005 -0.136526,-3.291636 -0.596373,-4.880669 -2.682627,-9.270002 -1.811202,-3.810642 -2.02605,-4.814404 -0.687816,-3.213447 1.004721,1.201967 2.326875,1.57967 3.479668,0.994045 0.29046,-0.147555 0.985791,-0.704486 1.54518,-1.237624 0.559388,-0.533138 1.107551,-0.969341 1.218139,-0.969341 0.549408,0 2.63844,3.129701 4.24063,6.353135 5.249616,10.561665 11.549477,37.307002 12.418843,52.722772 0.171038,3.032881 0.41237,5.343756 0.587689,5.627428 0.05363,0.08677 -3.142735,0.144473 -7.715207,0.139275 -7.718555,-0.0088 -7.796513,-0.01219 -6.899178,-0.302303 z"
       id="path6318"
       inkscape:connector-curvature="0"
       transform="matrix(0.33859607,0,0,0.34454976,148.27947,70.525089)"
       inkscape:label="skin9" />
    <path
       style="fill:#8d930e;fill-opacity:1;stroke:none;stroke-width:0.0330033;stroke-miterlimit:4;stroke-dasharray:none;stroke-opacity:1"
       d="m 48.331595,94.615111 c -0.05833,-0.703383 -0.213452,-2.169967 -0.344717,-3.259076 -0.410439,-3.405447 -0.634557,-10.710516 -0.532771,-17.365594 0.05242,-3.427471 0.146128,-6.487125 0.208238,-6.79923 0.209828,-1.054396 1.401516,-2.004373 4.220329,-3.364319 3.043917,-1.468547 6.229345,-3.564384 9.108523,-5.99291 2.991562,-2.52332 4.276585,-3.521306 4.536052,-3.522832 0.281824,-0.0017 0.257731,0.172556 -0.604544,4.371618 -1.585371,7.720352 -2.439971,15.542076 -2.313272,21.172209 0.07434,3.303707 0.216969,3.84967 1.043037,3.992758 0.464114,0.08039 0.503212,0.149193 0.699174,1.230427 0.389973,2.151703 2.151604,5.016739 6.523518,10.609556 0.128652,0.164578 -2.122649,0.206271 -11.138135,0.206271 H 48.437649 Z"
       id="path6322"
       inkscape:connector-curvature="0"
       transform="matrix(0.33859607,0,0,0.34454976,148.27947,70.525089)"
       inkscape:label="skin10" />
    <path
       style="fill:#fe0000;fill-opacity:1;stroke:none;stroke-width:0.0330033;stroke-miterlimit:4;stroke-dasharray:none;stroke-opacity:1"
       d="m 28.736694,95.239923 c -4.079161,-1.590114 -4.419226,-2.200765 -2.931305,-5.263714 0.500127,-1.029532 0.520749,-1.048044 1.068505,-0.959155 0.914453,0.148395 3.611229,1.512266 5.572172,2.818078 2.871009,1.911834 6.104881,3.097722 8.543537,3.132985 1.109447,0.01604 1.314356,-0.02865 1.673589,-0.36502 0.225143,-0.210815 0.525029,-0.693488 0.666412,-1.072607 0.668452,-1.792447 1.592861,-6.640125 1.59467,-8.362574 9.9e-4,-0.983243 0.245738,-2.074188 0.500581,-2.23169 0.405549,-0.250644 0.852596,2.479936 1.148622,7.015843 0.167413,2.565215 0.343812,4.173334 0.592962,5.405616 l 0.108432,0.536304 -8.477722,-0.01855 -8.477723,-0.01855 z"
       id="path6324"
       inkscape:connector-curvature="0"
       transform="matrix(0.33859607,0,0,0.34454976,148.27947,70.525089)"
       inkscape:label="red6" />
  </g>
</svg>
